<?xml version="1.0" encoding="utf-8"?>
<svg version="1.1" id="Layer_1" xmlns="http://www.w3.org/2000/svg" xmlns:xlink="http://www.w3.org/1999/xlink" x="0px" y="0px"
	 viewBox="0 0 1128.125 1652.736" enable-background="new 0 0 1128.125 1652.736" xml:space="preserve">
<g>
	<polygon fill="none" stroke="#C4264E" stroke-width="5.0665" stroke-linejoin="round" stroke-miterlimit="3" points="
		547.701,1133.554 547.701,1248.998 649.739,1250.433 693.258,1121.254 581.316,1248.998 	"/>
	<polygon fill="none" stroke="#C04EEC" stroke-width="5.0665" stroke-linejoin="round" stroke-miterlimit="3" points="
		631.991,1299.197 649.739,1250.433 547.701,1248.998 	"/>
	<polygon fill="none" stroke="#72EAFA" stroke-width="5.0665" stroke-linejoin="round" stroke-miterlimit="3" points="
		547.701,1297.987 631.991,1299.197 547.701,1248.998 	"/>
	<polygon fill="none" stroke="#1C524A" stroke-width="5.0665" stroke-linejoin="round" stroke-miterlimit="3" points="
		581.316,1248.998 693.258,1121.254 646.266,1133.554 	"/>
	<polygon fill="none" stroke="#B0060A" stroke-width="5.0665" stroke-linejoin="round" stroke-miterlimit="3" points="
		646.266,1133.554 693.258,1121.254 612.82,1093.977 	"/>
	<polygon fill="none" stroke="#245058" stroke-width="5.0665" stroke-linejoin="round" stroke-miterlimit="3" points="
		641.678,1037.551 693.258,1121.254 805.402,824.87 804.996,824.874 	"/>
	<polygon fill="none" stroke="#0C26CA" stroke-width="5.0665" stroke-linejoin="round" stroke-miterlimit="3" points="
		611.794,884.229 612.82,1093.977 693.258,1121.254 641.678,1037.551 	"/>
	<polygon fill="none" stroke="#5ED274" stroke-width="5.0665" stroke-linejoin="round" stroke-miterlimit="3" points="
		484.878,1092.831 405.91,1114.969 452.079,1131.125 	"/>
	<polygon fill="none" stroke="#CE3E02" stroke-width="5.0665" stroke-linejoin="round" stroke-miterlimit="3" points="
		547.701,1248.998 547.701,1133.554 512.603,1247.116 405.91,1114.969 446.046,1244.297 447.386,1243.62 	"/>
	<polygon fill="none" stroke="#F87AE4" stroke-width="5.0665" stroke-linejoin="round" stroke-miterlimit="3" points="
		804.996,824.874 805.402,824.87 805.794,823.835 	"/>
	<polygon fill="none" stroke="#F87608" stroke-width="5.0665" stroke-linejoin="round" stroke-miterlimit="3" points="
		447.386,1243.62 446.046,1244.297 462.327,1296.761 547.701,1248.998 	"/>
	<polygon fill="none" stroke="#784404" stroke-width="5.0665" stroke-linejoin="round" stroke-miterlimit="3" points="
		547.701,1297.987 462.327,1296.761 545.163,1342.797 547.701,1299.79 	"/>
	<polygon fill="none" stroke="#0AB254" stroke-width="5.0665" stroke-linejoin="round" stroke-miterlimit="3" points="
		547.701,1248.998 462.327,1296.761 547.701,1297.987 	"/>
	<polygon fill="none" stroke="#464CDC" stroke-width="5.0665" stroke-linejoin="round" stroke-miterlimit="3" points="
		547.701,1299.79 545.163,1342.797 631.991,1299.197 547.701,1297.987 	"/>
	<polygon fill="none" stroke="#F282BC" stroke-width="5.0665" stroke-linejoin="round" stroke-miterlimit="3" points="
		888.615,654.184 887.501,611.422 670.327,685.448 	"/>
	<polygon fill="none" stroke="#64F88C" stroke-width="5.0665" stroke-linejoin="round" stroke-miterlimit="3" points="
		928.627,395.044 709.613,248.092 558.027,465.506 	"/>
	<polygon fill="none" stroke="#3E58AE" stroke-width="5.0665" stroke-linejoin="round" stroke-miterlimit="3" points="
		887.501,611.422 928.627,395.044 558.027,465.506 	"/>
	<polygon fill="none" stroke="#F4EC42" stroke-width="5.0665" stroke-linejoin="round" stroke-miterlimit="3" points="
		670.327,685.448 887.501,611.422 558.027,465.506 	"/>
	<polygon fill="none" stroke="#48AA02" stroke-width="5.0665" stroke-linejoin="round" stroke-miterlimit="3" points="
		458.903,1037.895 405.91,1114.969 484.878,1092.831 	"/>
	<polygon fill="none" stroke="#86F65A" stroke-width="5.0665" stroke-linejoin="round" stroke-miterlimit="3" points="
		414.964,248.458 198.53,391.325 558.027,465.506 	"/>
	<polygon fill="none" stroke="#F01CE8" stroke-width="5.0665" stroke-linejoin="round" stroke-miterlimit="3" points="
		231.979,646.201 124.388,677.131 295.764,724.245 	"/>
	<polygon fill="none" stroke="#163E18" stroke-width="5.0665" stroke-linejoin="round" stroke-miterlimit="3" points="
		805.402,824.87 806.171,824.863 805.794,823.835 	"/>
	<polygon fill="none" stroke="#B084FE" stroke-width="5.0665" stroke-linejoin="round" stroke-miterlimit="3" points="
		295.764,724.245 124.388,677.131 244.996,750.194 	"/>
	<polygon fill="none" stroke="#069CE0" stroke-width="5.0665" stroke-linejoin="round" stroke-miterlimit="3" points="
		736.807,820.817 664.773,797.81 641.678,1037.551 	"/>
	<polygon fill="none" stroke="#88969C" stroke-width="5.0665" stroke-linejoin="round" stroke-miterlimit="3" points="
		818.385,732.071 888.615,654.184 670.327,685.448 	"/>
	<polygon fill="none" stroke="#DC0630" stroke-width="5.0665" stroke-linejoin="round" stroke-miterlimit="3" points="
		805.794,823.835 806.171,824.863 847.962,824.482 852.385,823.341 852.385,752.7 773.337,752.7 773.337,825.163 804.996,824.874 	
		"/>
	<polygon fill="none" stroke="#741292" stroke-width="5.0665" stroke-linejoin="round" stroke-miterlimit="3" points="
		804.996,824.874 773.337,825.163 736.807,820.817 641.678,1037.551 	"/>
	<polygon fill="none" stroke="#C2EC5E" stroke-width="5.0665" stroke-linejoin="round" stroke-miterlimit="3" points="
		752.727,759.996 670.327,685.448 664.773,797.81 818.385,732.071 670.327,685.448 	"/>
	<polygon fill="none" stroke="#DA0AAA" stroke-width="5.0665" stroke-linejoin="round" stroke-miterlimit="3" points="
		573.535,741.951 664.773,797.81 670.327,685.448 	"/>
	<polygon fill="none" stroke="#D04E1C" stroke-width="5.0665" stroke-linejoin="round" stroke-miterlimit="3" points="
		641.678,1037.551 664.773,797.81 611.794,884.229 	"/>
	<polygon fill="none" stroke="#2CBEC6" stroke-width="5.0665" stroke-linejoin="round" stroke-miterlimit="3" points="
		198.53,391.325 124.388,677.131 232.2,605.036 	"/>
	<polygon fill="none" stroke="#8E489C" stroke-width="5.0665" stroke-linejoin="round" stroke-miterlimit="3" points="
		547.701,1133.554 612.82,1093.977 548.606,1093.977 	"/>
	<polygon fill="none" stroke="#E4D6DE" stroke-width="5.0665" stroke-linejoin="round" stroke-miterlimit="3" points="
		548.606,1093.977 612.82,1093.977 554.53,863.335 	"/>
	<polygon fill="none" stroke="#D83026" stroke-width="5.0665" stroke-linejoin="round" stroke-miterlimit="3" points="
		484.878,1092.831 547.701,1133.554 548.606,1093.977 	"/>
	<polygon fill="none" stroke="#DEB456" stroke-width="5.0665" stroke-linejoin="round" stroke-miterlimit="3" points="
		612.82,1093.977 611.794,884.229 554.53,863.335 	"/>
	<polygon fill="none" stroke="#208ADA" stroke-width="5.0665" stroke-linejoin="round" stroke-miterlimit="3" points="
		554.53,863.335 484.878,1092.831 548.606,1093.977 	"/>
	<polygon fill="none" stroke="#EC461E" stroke-width="5.0665" stroke-linejoin="round" stroke-miterlimit="3" points="
		533.589,743.765 554.53,863.335 573.535,741.951 560.247,687.933 	"/>
	<polygon fill="none" stroke="#B49C04" stroke-width="5.0665" stroke-linejoin="round" stroke-miterlimit="3" points="
		611.794,884.229 573.535,741.951 554.53,863.335 	"/>
	<polygon fill="none" stroke="#80486E" stroke-width="5.0665" stroke-linejoin="round" stroke-miterlimit="3" points="
		646.266,1133.554 612.82,1093.977 547.701,1133.554 	"/>
	<polygon fill="none" stroke="#64FA68" stroke-width="5.0665" stroke-linejoin="round" stroke-miterlimit="3" points="
		573.535,741.951 670.327,685.448 560.247,687.933 	"/>
	<polygon fill="none" stroke="#1050B8" stroke-width="5.0665" stroke-linejoin="round" stroke-miterlimit="3" points="
		581.316,1248.998 646.266,1133.554 547.701,1133.554 	"/>
	<polygon fill="none" stroke="#A4A4BC" stroke-width="5.0665" stroke-linejoin="round" stroke-miterlimit="3" points="
		452.079,1131.125 547.701,1133.554 484.878,1092.831 	"/>
	<polygon fill="none" stroke="#A67CAC" stroke-width="5.0665" stroke-linejoin="round" stroke-miterlimit="3" points="
		458.903,1037.895 484.878,1092.831 493.745,882.151 	"/>
	<polygon fill="none" stroke="#10A622" stroke-width="5.0665" stroke-linejoin="round" stroke-miterlimit="3" points="
		493.745,882.151 484.878,1092.831 554.53,863.335 	"/>
	<polygon fill="none" stroke="#74869E" stroke-width="5.0665" stroke-linejoin="round" stroke-miterlimit="3" points="
		533.589,743.765 493.745,882.151 554.53,863.335 	"/>
	<polygon fill="none" stroke="#FC66C4" stroke-width="5.0665" stroke-linejoin="round" stroke-miterlimit="3" points="
		310.495,834.056 405.91,1114.969 458.903,1037.895 	"/>
	<polygon fill="none" stroke="#A42488" stroke-width="5.0665" stroke-linejoin="round" stroke-miterlimit="3" points="
		444.375,680.397 533.589,743.765 560.247,687.933 	"/>
	<polygon fill="none" stroke="#EC2234" stroke-width="5.0665" stroke-linejoin="round" stroke-miterlimit="3" points="
		447.632,790.775 378.8,811.943 458.903,1037.895 	"/>
	<polygon fill="none" stroke="#0C605E" stroke-width="5.0665" stroke-linejoin="round" stroke-miterlimit="3" points="
		304.124,815.298 335.986,814.849 339.483,745.792 265.729,743.742 265.727,815.839 303.673,815.304 303.92,814.698 	"/>
	<polygon fill="none" stroke="#DC483C" stroke-width="5.0665" stroke-linejoin="round" stroke-miterlimit="3" points="
		493.745,882.151 447.632,790.775 458.903,1037.895 	"/>
	<polygon fill="none" stroke="#0EEE32" stroke-width="5.0665" stroke-linejoin="round" stroke-miterlimit="3" points="
		378.8,811.943 335.986,814.849 304.124,815.298 310.495,834.056 458.903,1037.895 	"/>
	<polygon fill="none" stroke="#4050AA" stroke-width="5.0665" stroke-linejoin="round" stroke-miterlimit="3" points="
		533.589,743.765 447.632,790.775 493.745,882.151 	"/>
	<polygon fill="none" stroke="#5A6E48" stroke-width="5.0665" stroke-linejoin="round" stroke-miterlimit="3" points="
		303.92,814.698 303.673,815.304 304.124,815.298 	"/>
	<polygon fill="none" stroke="#C27AB8" stroke-width="5.0665" stroke-linejoin="round" stroke-miterlimit="3" points="
		670.327,685.448 558.027,465.506 560.247,687.933 	"/>
	<polygon fill="none" stroke="#E46CFC" stroke-width="5.0665" stroke-linejoin="round" stroke-miterlimit="3" points="
		303.673,815.304 301.22,821.317 310.495,834.056 304.124,815.298 	"/>
	<polygon fill="none" stroke="#CC0028" stroke-width="5.0665" stroke-linejoin="round" stroke-miterlimit="3" points="
		232.2,605.036 231.979,646.201 444.375,680.397 	"/>
	<polygon fill="none" stroke="#F046C4" stroke-width="5.0665" stroke-linejoin="round" stroke-miterlimit="3" points="
		558.027,465.506 232.2,605.036 444.375,680.397 	"/>
	<polygon fill="none" stroke="#C49E1E" stroke-width="5.0665" stroke-linejoin="round" stroke-miterlimit="3" points="
		560.247,687.933 558.027,465.506 444.375,680.397 	"/>
	<polygon fill="none" stroke="#F46076" stroke-width="5.0665" stroke-linejoin="round" stroke-miterlimit="3" points="
		365.179,752.211 447.632,790.775 444.375,680.397 	"/>
	<polygon fill="none" stroke="#F2FABC" stroke-width="5.0665" stroke-linejoin="round" stroke-miterlimit="3" points="
		444.375,680.397 447.632,790.775 533.589,743.765 	"/>
	<polygon fill="none" stroke="#E266DA" stroke-width="5.0665" stroke-linejoin="round" stroke-miterlimit="3" points="
		231.979,646.201 295.764,724.245 444.375,680.397 	"/>
	<polygon fill="none" stroke="#D0B08A" stroke-width="5.0665" stroke-linejoin="round" stroke-miterlimit="3" points="
		997.569,690.428 1078.312,466.14 928.627,395.044 	"/>
	<polygon fill="none" stroke="#D0D288" stroke-width="5.0665" stroke-linejoin="round" stroke-miterlimit="3" points="
		152.156,1403.442 394.335,1579.756 244.54,1288.834 	"/>
	<polygon fill="none" stroke="#8674CA" stroke-width="5.0665" stroke-linejoin="round" stroke-miterlimit="3" points="
		182.555,156.071 49.813,461.074 198.53,391.325 	"/>
	<polygon fill="none" stroke="#60CAA6" stroke-width="5.0665" stroke-linejoin="round" stroke-miterlimit="3" points="
		384.202,42.581 182.555,156.071 414.964,248.458 	"/>
	<polygon fill="none" stroke="#F8FEF2" stroke-width="5.0665" stroke-linejoin="round" stroke-miterlimit="3" points="
		167.363,785.33 49.813,785.33 232.906,988.803 	"/>
	<polygon fill="none" stroke="#084AD8" stroke-width="5.0665" stroke-linejoin="round" stroke-miterlimit="3" points="
		568.622,26.368 384.202,42.581 414.964,248.458 	"/>
	<polygon fill="none" stroke="#C4F05E" stroke-width="5.0665" stroke-linejoin="round" stroke-miterlimit="3" points="
		93.385,1117.692 152.156,1403.442 244.54,1288.834 	"/>
	<polygon fill="none" stroke="#6C76D6" stroke-width="5.0665" stroke-linejoin="round" stroke-miterlimit="3" points="
		49.813,785.33 93.385,1117.692 232.906,988.803 	"/>
	<polygon fill="none" stroke="#600812" stroke-width="5.0665" stroke-linejoin="round" stroke-miterlimit="3" points="
		49.813,461.074 49.813,785.33 124.388,677.131 	"/>
	<polygon fill="none" stroke="#C4EED0" stroke-width="5.0665" stroke-linejoin="round" stroke-miterlimit="3" points="
		928.627,395.044 956.716,154.044 709.613,248.092 	"/>
	<polygon fill="none" stroke="#1A6AFE" stroke-width="5.0665" stroke-linejoin="round" stroke-miterlimit="3" points="
		1078.312,466.14 956.716,154.044 928.627,395.044 	"/>
	<polygon fill="none" stroke="#6E1A02" stroke-width="5.0665" stroke-linejoin="round" stroke-miterlimit="3" points="
		887.501,611.422 997.569,690.428 928.627,395.044 	"/>
	<polygon fill="none" stroke="#34F4E4" stroke-width="5.0665" stroke-linejoin="round" stroke-miterlimit="3" points="
		752.029,41.568 568.622,26.368 709.613,248.092 	"/>
	<polygon fill="none" stroke="#1C4E88" stroke-width="5.0665" stroke-linejoin="round" stroke-miterlimit="3" points="
		956.716,154.044 752.029,41.568 709.613,248.092 	"/>
	<polygon fill="none" stroke="#9CF6AE" stroke-width="5.0665" stroke-linejoin="round" stroke-miterlimit="3" points="
		709.613,248.092 568.622,26.368 414.964,248.458 	"/>
	<polygon fill="none" stroke="#BA48E2" stroke-width="5.0665" stroke-linejoin="round" stroke-miterlimit="3" points="
		749.557,1305.972 691.231,1587.863 851.732,1305.53 	"/>
	<polygon fill="none" stroke="#A648A6" stroke-width="5.0665" stroke-linejoin="round" stroke-miterlimit="3" points="
		244.54,1288.834 394.335,1579.756 345.479,1295.118 	"/>
	<polygon fill="none" stroke="#38F638" stroke-width="5.0665" stroke-linejoin="round" stroke-miterlimit="3" points="
		691.231,1587.863 941.516,1425.735 851.732,1305.53 	"/>
	<polygon fill="none" stroke="#7E1AB6" stroke-width="5.0665" stroke-linejoin="round" stroke-miterlimit="3" points="
		1013.461,1138.971 1069.192,803.569 872.909,1007.048 	"/>
	<polygon fill="none" stroke="#FA3498" stroke-width="5.0665" stroke-linejoin="round" stroke-miterlimit="3" points="
		888.615,654.184 997.569,690.428 887.501,611.422 	"/>
	<polygon fill="none" stroke="#BEFAAC" stroke-width="5.0665" stroke-linejoin="round" stroke-miterlimit="3" points="
		872.909,1007.048 1069.192,803.569 952.577,797.505 	"/>
	<polygon fill="none" stroke="#F4AC88" stroke-width="5.0665" stroke-linejoin="round" stroke-miterlimit="3" points="
		997.569,690.428 1069.192,803.569 1078.312,466.14 	"/>
	<polygon fill="none" stroke="#943480" stroke-width="5.0665" stroke-linejoin="round" stroke-miterlimit="3" points="
		124.388,677.131 167.363,785.33 244.996,750.194 	"/>
	<polygon fill="none" stroke="#0C7466" stroke-width="5.0665" stroke-linejoin="round" stroke-miterlimit="3" points="
		941.516,1425.735 1013.461,1138.971 851.732,1305.53 	"/>
	<polygon fill="none" stroke="#2AAE6C" stroke-width="5.0665" stroke-linejoin="round" stroke-miterlimit="3" points="
		394.335,1579.756 541.263,1626.368 545.501,1408.744 	"/>
	<polygon fill="none" stroke="#98627E" stroke-width="5.0665" stroke-linejoin="round" stroke-miterlimit="3" points="
		444.159,1336.41 394.335,1579.756 545.501,1408.744 	"/>
	<polygon fill="none" stroke="#360CAC" stroke-width="5.0665" stroke-linejoin="round" stroke-miterlimit="3" points="
		345.479,1295.118 394.335,1579.756 444.159,1336.41 	"/>
	<polygon fill="none" stroke="#544212" stroke-width="5.0665" stroke-linejoin="round" stroke-miterlimit="3" points="
		541.263,1626.368 691.231,1587.863 545.501,1408.744 	"/>
	<polygon fill="none" stroke="#F8809E" stroke-width="5.0665" stroke-linejoin="round" stroke-miterlimit="3" points="
		545.501,1408.744 691.231,1587.863 646.266,1344.339 	"/>
	<polygon fill="none" stroke="#B0225C" stroke-width="5.0665" stroke-linejoin="round" stroke-miterlimit="3" points="
		646.266,1344.339 691.231,1587.863 749.557,1305.972 	"/>
	<polygon fill="none" stroke="#48CE5A" stroke-width="5.0665" stroke-linejoin="round" stroke-miterlimit="3" points="
		952.577,797.505 1069.192,803.569 997.569,690.428 	"/>
	<polygon fill="none" stroke="#165A8A" stroke-width="5.0665" stroke-linejoin="round" stroke-miterlimit="3" points="
		300.054,819.715 301.22,821.317 303.673,815.304 265.727,815.839 235.342,810.384 232.906,988.803 301.22,821.317 	"/>
	<polygon fill="none" stroke="#9CBA06" stroke-width="5.0665" stroke-linejoin="round" stroke-miterlimit="3" points="
		545.501,1408.744 646.266,1344.339 545.163,1342.797 	"/>
	<polygon fill="none" stroke="#78C246" stroke-width="5.0665" stroke-linejoin="round" stroke-miterlimit="3" points="
		545.163,1342.797 646.266,1344.339 631.991,1299.197 	"/>
	<polygon fill="none" stroke="#6AB404" stroke-width="5.0665" stroke-linejoin="round" stroke-miterlimit="3" points="
		444.159,1336.41 545.501,1408.744 545.163,1342.797 	"/>
	<polygon fill="none" stroke="#A29A2A" stroke-width="5.0665" stroke-linejoin="round" stroke-miterlimit="3" points="
		646.266,1344.339 749.557,1305.972 631.991,1299.197 	"/>
	<polygon fill="none" stroke="#7E1E28" stroke-width="5.0665" stroke-linejoin="round" stroke-miterlimit="3" points="
		167.363,785.33 232.906,988.803 235.342,810.384 	"/>
	<polygon fill="none" stroke="#0EFA7E" stroke-width="5.0665" stroke-linejoin="round" stroke-miterlimit="3" points="
		462.327,1296.761 444.159,1336.41 545.163,1342.797 	"/>
	<polygon fill="none" stroke="#26B8B2" stroke-width="5.0665" stroke-linejoin="round" stroke-miterlimit="3" points="
		446.046,1244.297 345.479,1295.118 462.327,1296.761 	"/>
	<polygon fill="none" stroke="#9696DA" stroke-width="5.0665" stroke-linejoin="round" stroke-miterlimit="3" points="
		405.91,1114.969 345.479,1295.118 446.046,1244.297 	"/>
	<polygon fill="none" stroke="#EAC606" stroke-width="5.0665" stroke-linejoin="round" stroke-miterlimit="3" points="
		244.54,1288.834 345.479,1295.118 405.91,1114.969 	"/>
	<polygon fill="none" stroke="#EA7690" stroke-width="5.0665" stroke-linejoin="round" stroke-miterlimit="3" points="
		310.495,834.056 301.22,821.317 232.906,988.803 405.91,1114.969 	"/>
	<polygon fill="none" stroke="#08A8B0" stroke-width="5.0665" stroke-linejoin="round" stroke-miterlimit="3" points="
		631.991,1299.197 749.557,1305.972 649.739,1250.433 	"/>
	<polygon fill="none" stroke="#7C10E0" stroke-width="5.0665" stroke-linejoin="round" stroke-miterlimit="3" points="
		345.479,1295.118 444.159,1336.41 462.327,1296.761 	"/>
	<polygon fill="none" stroke="#BA6A1E" stroke-width="5.0665" stroke-linejoin="round" stroke-miterlimit="3" points="
		872.909,1007.048 952.577,797.505 874.994,817.511 	"/>
	<polygon fill="none" stroke="#E05C7A" stroke-width="5.0665" stroke-linejoin="round" stroke-miterlimit="3" points="
		805.402,824.87 693.258,1121.254 872.909,1007.048 806.171,824.863 	"/>
	<polygon fill="none" stroke="#48BCCC" stroke-width="5.0665" stroke-linejoin="round" stroke-miterlimit="3" points="
		852.385,823.341 852.385,824.482 852.385,823.341 847.962,824.482 806.171,824.863 872.909,1007.048 874.994,817.511 	"/>
	<polygon fill="none" stroke="#4C0E7E" stroke-width="5.0665" stroke-linejoin="round" stroke-miterlimit="3" points="
		232.906,988.803 244.54,1288.834 405.91,1114.969 	"/>
	<polygon fill="none" stroke="#5AC440" stroke-width="5.0665" stroke-linejoin="round" stroke-miterlimit="3" points="
		952.577,797.505 997.569,690.428 870.523,763.386 	"/>
	<polygon fill="none" stroke="#1CAEF8" stroke-width="5.0665" stroke-linejoin="round" stroke-miterlimit="3" points="
		818.385,732.071 664.773,797.81 736.807,820.817 773.337,825.163 773.337,752.7 852.385,752.7 852.385,823.341 874.994,817.511 
		875.006,816.415 874.994,817.511 952.577,797.505 870.523,763.386 	"/>
	<polygon fill="none" stroke="#A01C90" stroke-width="5.0665" stroke-linejoin="round" stroke-miterlimit="3" points="
		870.523,763.386 997.569,690.428 818.385,732.071 	"/>
	<polygon fill="none" stroke="#202AF8" stroke-width="5.0665" stroke-linejoin="round" stroke-miterlimit="3" points="
		851.732,1305.53 872.909,1007.048 693.258,1121.254 	"/>
	<polygon fill="none" stroke="#7A566C" stroke-width="5.0665" stroke-linejoin="round" stroke-miterlimit="3" points="
		649.739,1250.433 749.557,1305.972 693.258,1121.254 	"/>
	<polygon fill="none" stroke="#F6C4FA" stroke-width="5.0665" stroke-linejoin="round" stroke-miterlimit="3" points="
		818.385,732.071 997.569,690.428 888.615,654.184 	"/>
	<polygon fill="none" stroke="#42CAAE" stroke-width="5.0665" stroke-linejoin="round" stroke-miterlimit="3" points="
		749.557,1305.972 851.732,1305.53 693.258,1121.254 	"/>
	<polygon fill="none" stroke="#F8E468" stroke-width="5.0665" stroke-linejoin="round" stroke-miterlimit="3" points="
		265.727,815.839 265.729,743.742 339.483,745.792 335.986,814.849 378.8,811.943 447.632,790.775 365.179,752.211 295.764,724.245 
		244.996,750.194 167.363,785.33 235.342,810.384 	"/>
	<polygon fill="none" stroke="#98CA76" stroke-width="5.0665" stroke-linejoin="round" stroke-miterlimit="3" points="
		709.613,248.092 414.964,248.458 558.027,465.506 	"/>
	<polygon fill="none" stroke="#ECB282" stroke-width="5.0665" stroke-linejoin="round" stroke-miterlimit="3" points="
		414.964,248.458 182.555,156.071 198.53,391.325 	"/>
	<polygon fill="none" stroke="#845028" stroke-width="5.0665" stroke-linejoin="round" stroke-miterlimit="3" points="
		558.027,465.506 198.53,391.325 232.2,605.036 	"/>
	<polygon fill="none" stroke="#18FA42" stroke-width="5.0665" stroke-linejoin="round" stroke-miterlimit="3" points="
		198.53,391.325 49.813,461.074 124.388,677.131 	"/>
	<polygon fill="none" stroke="#32D43A" stroke-width="5.0665" stroke-linejoin="round" stroke-miterlimit="3" points="
		232.906,988.803 93.385,1117.692 244.54,1288.834 	"/>
	<polygon fill="none" stroke="#FCCAEC" stroke-width="5.0665" stroke-linejoin="round" stroke-miterlimit="3" points="
		851.732,1305.53 1013.461,1138.971 872.909,1007.048 	"/>
	<polygon fill="none" stroke="#0864D4" stroke-width="5.0665" stroke-linejoin="round" stroke-miterlimit="3" points="
		512.603,1247.116 547.701,1133.554 452.079,1131.125 	"/>
	<polygon fill="none" stroke="#B808A4" stroke-width="5.0665" stroke-linejoin="round" stroke-miterlimit="3" points="
		452.079,1131.125 405.91,1114.969 512.603,1247.116 	"/>
	<polygon fill="none" stroke="#7CE2F6" stroke-width="5.0665" stroke-linejoin="round" stroke-miterlimit="3" points="
		232.2,605.036 124.388,677.131 231.979,646.201 	"/>
	<polygon fill="none" stroke="#EC240C" stroke-width="5.0665" stroke-linejoin="round" stroke-miterlimit="3" points="
		124.388,677.131 49.813,785.33 167.363,785.33 	"/>
	<polygon fill="none" stroke="#745648" stroke-width="5.0665" stroke-linejoin="round" stroke-miterlimit="3" points="
		295.764,724.245 365.179,752.211 444.375,680.397 	"/>
	<polygon fill="none" stroke="#DAB05A" stroke-width="5.0665" stroke-linejoin="round" stroke-miterlimit="3" points="
		611.794,884.229 664.773,797.81 573.535,741.951 	"/>
</g>
</svg>
